<svg width="current" height="current" viewBox="0 0 77 77" fill="none" xmlns="http://www.w3.org/2000/svg">
<path d="M35.0504 11.165C35.3681 10.5203 35.86 9.97736 36.4703 9.59771C37.0807 9.21806 37.7851 9.01685 38.5039 9.01685C39.2227 9.01685 39.9271 9.21806 40.5374 9.59771C41.1477 9.97736 41.6396 10.5203 41.9573 11.165L49.3878 26.2185L66.0083 28.6363C66.7194 28.7396 67.3874 29.0398 67.9367 29.503C68.4861 29.9662 68.8948 30.5738 69.1168 31.2573C69.3387 31.9407 69.3649 32.6726 69.1925 33.3701C69.0201 34.0677 68.6559 34.7031 68.1412 35.2044L66.0275 37.2642C62.3858 35.261 58.2351 34.3738 54.0927 34.7131C49.9503 35.0525 45.9993 36.6035 42.7323 39.1727C39.4652 41.742 37.0265 45.2159 35.72 49.1615C34.4136 53.1071 34.2972 57.35 35.3854 61.3613L23.6429 67.5367C23.0066 67.8724 22.2891 68.0232 21.5715 67.9718C20.854 67.9205 20.1652 67.6691 19.5832 67.2463C19.0012 66.8234 18.5494 66.246 18.2789 65.5794C18.0083 64.9128 17.93 64.1838 18.0527 63.475L20.894 46.9238L8.86658 35.2044C8.35182 34.7031 7.98763 34.0677 7.81523 33.3701C7.64282 32.6726 7.66906 31.9407 7.89099 31.2573C8.11293 30.5738 8.52169 29.9662 9.07103 29.503C9.62038 29.0398 10.2884 28.7396 10.9995 28.6363L27.6199 26.2224L35.0504 11.1612V11.165ZM73.1577 55.825C73.1577 60.4199 71.3324 64.8266 68.0833 68.0757C64.8343 71.3247 60.4276 73.15 55.8327 73.15C51.2378 73.15 46.8312 71.3247 43.5821 68.0757C40.333 64.8266 38.5077 60.4199 38.5077 55.825C38.5077 51.2302 40.333 46.8235 43.5821 43.5744C46.8312 40.3253 51.2378 38.5 55.8327 38.5C60.4276 38.5 64.8343 40.3253 68.0833 43.5744C71.3324 46.8235 73.1577 51.2302 73.1577 55.825ZM57.7577 48.125C57.7577 47.6145 57.5549 47.1249 57.1939 46.7639C56.8329 46.4028 56.3433 46.2 55.8327 46.2C55.3222 46.2 54.8325 46.4028 54.4715 46.7639C54.1105 47.1249 53.9077 47.6145 53.9077 48.125V53.9H48.1327C47.6222 53.9 47.1326 54.1028 46.7715 54.4639C46.4105 54.8249 46.2077 55.3145 46.2077 55.825C46.2077 56.3356 46.4105 56.8252 46.7715 57.1862C47.1326 57.5472 47.6222 57.75 48.1327 57.75H53.9077V63.525C53.9077 64.0356 54.1105 64.5252 54.4715 64.8862C54.8325 65.2472 55.3222 65.45 55.8327 65.45C56.3433 65.45 56.8329 65.2472 57.1939 64.8862C57.5549 64.5252 57.7577 64.0356 57.7577 63.525V57.75H63.5327C64.0433 57.75 64.5329 57.5472 64.8939 57.1862C65.2549 56.8252 65.4577 56.3356 65.4577 55.825C65.4577 55.3145 65.2549 54.8249 64.8939 54.4639C64.5329 54.1028 64.0433 53.9 63.5327 53.9H57.7577V48.125Z" fill="current"/>
</svg>
