<svg width="31" height="31" viewBox="0 0 31 31" fill="none" xmlns="http://www.w3.org/2000/svg">
<g clip-path="url(#clip0_776_729)">
<path fill-rule="evenodd" clip-rule="evenodd" d="M3.875 30.0312V3.875C3.875 2.84729 4.28326 1.86166 5.00996 1.13496C5.73666 0.408258 6.72229 0 7.75 0L23.25 0C24.2777 0 25.2633 0.408258 25.99 1.13496C26.7167 1.86166 27.125 2.84729 27.125 3.875V30.0312C27.1251 30.1995 27.0814 30.3648 26.9982 30.5111C26.915 30.6573 26.7952 30.7793 26.6505 30.8651C26.5058 30.951 26.3413 30.9976 26.1731 31.0006C26.0049 31.0035 25.8388 30.9626 25.6913 30.8818L15.5 25.3212L5.30875 30.8818C5.16117 30.9626 4.99511 31.0035 4.8269 31.0006C4.6587 30.9976 4.49416 30.951 4.34948 30.8651C4.20479 30.7793 4.08496 30.6573 4.00176 30.5111C3.91856 30.3648 3.87488 30.1995 3.875 30.0312ZM15.81 7.94375C15.7817 7.88565 15.7376 7.83668 15.6828 7.80242C15.628 7.76816 15.5646 7.75 15.5 7.75C15.4354 7.75 15.372 7.76816 15.3172 7.80242C15.2624 7.83668 15.2183 7.88565 15.19 7.94375L13.9616 10.4334C13.937 10.4838 13.9005 10.5274 13.8553 10.5605C13.8101 10.5936 13.7574 10.6151 13.702 10.6233L10.9508 11.0224C10.8874 11.032 10.828 11.0591 10.7792 11.1006C10.7304 11.1421 10.6941 11.1963 10.6744 11.2573C10.6546 11.3182 10.6523 11.3835 10.6676 11.4457C10.6829 11.5079 10.7152 11.5646 10.7609 11.6095L12.7487 13.5489C12.8301 13.6284 12.8669 13.7427 12.8476 13.8551L12.3806 16.5947C12.3701 16.6579 12.3774 16.7229 12.4018 16.7822C12.4261 16.8416 12.4665 16.8929 12.5184 16.9306C12.5703 16.9682 12.6317 16.9906 12.6957 16.9953C12.7597 17 12.8237 16.9867 12.8805 16.957L15.3411 15.6627C15.3905 15.6369 15.4453 15.6235 15.501 15.6235C15.5566 15.6235 15.6115 15.6369 15.6608 15.6627L18.1214 16.957C18.1782 16.9862 18.242 16.999 18.3056 16.9941C18.3693 16.9891 18.4303 16.9666 18.4819 16.9291C18.5335 16.8915 18.5737 16.8404 18.598 16.7813C18.6222 16.7223 18.6297 16.6577 18.6194 16.5947L18.1505 13.8531C18.1406 13.7981 18.1443 13.7414 18.1611 13.6881C18.178 13.6348 18.2076 13.5863 18.2474 13.547L20.2391 11.6076C20.2848 11.5627 20.3171 11.506 20.3324 11.4437C20.3477 11.3815 20.3454 11.3163 20.3256 11.2553C20.3059 11.1944 20.2696 11.1401 20.2208 11.0987C20.172 11.0572 20.1126 11.0301 20.0492 11.0205L17.298 10.6214C17.2426 10.6132 17.1899 10.5916 17.1447 10.5586C17.0995 10.5255 17.063 10.4819 17.0384 10.4315L15.81 7.94375Z" fill="#999999"/>
</g>
<defs>
<clipPath id="clip0_776_729">
<rect width="31" height="31" fill="white"/>
</clipPath>
</defs>
</svg>
