<svg width="19" height="30" viewBox="0 0 19 30" fill="none" xmlns="http://www.w3.org/2000/svg">
<g clip-path="url(#clip0_186_986)">
<path d="M18.1945 16.9778L9.51953 29.986V22.6551L18.1945 16.9778ZM13.5968 21.5501L10.812 23.3669V25.7186L13.5968 21.5502V21.5501Z" fill="#5A9DED"/>
<path d="M0.844482 16.9778L9.51948 29.986V22.6551L0.844482 16.9778ZM5.44223 21.5501L8.22704 23.3669V25.7186L5.44223 21.5502V21.5501Z" fill="#53D3E0"/>
<path d="M10.62 11.0303L16.3655 14.3475L16.5691 14.9929L15.885 15.6121L10.62 12.5658V11.0303Z" fill="#D995D1"/>
<path d="M8.42279 11.0303L2.67729 14.3475L2.47363 14.9929L3.15774 15.6121L8.42279 12.5658V11.0303Z" fill="#A6E276"/>
<path d="M9.51953 0L18.1945 15.4007L9.51953 21.064V0ZM10.8007 4.9403V18.6906L16.4681 14.9929L10.8007 4.94023V4.9403Z" fill="#FF9C92"/>
<path d="M9.51948 0L0.844482 15.4007L9.51948 21.064V0ZM8.23829 4.9403V18.6906L2.57094 14.993L8.23829 4.9403Z" fill="#FFE94D"/>
</g>
<defs>
<clipPath id="clip0_186_986">
<rect width="17.35" height="30" fill="white" transform="translate(0.844482)"/>
</clipPath>
</defs>
</svg>
