<svg width="25" height="26" viewBox="0 0 25 26" fill="none" xmlns="http://www.w3.org/2000/svg">
<path d="M22.9605 22.951H11.8466L24.2795 10.0054C24.5077 9.77142 24.6889 9.49255 24.8126 9.18504C24.9363 8.87752 25 8.5475 25 8.21416C25 7.88082 24.9363 7.5508 24.8126 7.24329C24.6889 6.93577 24.5077 6.6569 24.2795 6.42287L18.8203 0.74411C18.5945 0.508262 18.3261 0.321121 18.0306 0.193427C17.7351 0.0657332 17.4182 0 17.0983 0C16.7783 0 16.4614 0.0657332 16.1659 0.193427C15.8704 0.321121 15.602 0.508262 15.3762 0.74411L0.72057 15.9891C0.49235 16.2231 0.311122 16.502 0.187421 16.8095C0.0637193 17.117 1.14786e-05 17.4471 0 17.7804V23.4592C0.00321014 24.132 0.261586 24.7763 0.71897 25.2521C1.17635 25.7279 1.79578 25.9967 2.44261 26H22.9605C23.3492 26 23.722 25.8394 23.9968 25.5535C24.2717 25.2676 24.4261 24.8798 24.4261 24.4755C24.4261 24.0712 24.2717 23.6834 23.9968 23.3975C23.722 23.1116 23.3492 22.951 22.9605 22.951ZM17.0983 3.25954L21.8613 8.21416L20.0294 10.1198L15.2663 5.16516L17.0983 3.25954ZM2.93113 22.951V17.9964L13.1901 7.32487L17.9532 12.2795L7.69421 22.951H2.93113Z" fill="#999999"/>
</svg>
