<svg width="32" height="32" viewBox="0 0 32 32" fill="none" xmlns="http://www.w3.org/2000/svg">
<path d="M0 6C0 4.4087 0.632141 2.88258 1.75736 1.75736C2.88258 0.632141 4.4087 0 6 0H22C23.5913 0 25.1174 0.632141 26.2426 1.75736C27.3679 2.88258 28 4.4087 28 6V13.2C26.5605 12.4659 24.9771 12.0578 23.3621 12.0048C21.7471 11.9517 20.1403 12.255 18.6557 12.893C17.1712 13.531 15.8454 14.4882 14.7725 15.6964C13.6996 16.9047 12.906 18.3344 12.448 19.884C11.5792 19.7555 10.7357 19.4923 9.948 19.104C9.60635 18.9361 9.28039 18.7379 8.974 18.512C8.88216 18.4426 8.79341 18.3692 8.708 18.292L8.702 18.288C8.5137 18.101 8.25883 17.9965 7.99346 17.9974C7.7281 17.9984 7.47398 18.1047 7.287 18.293C7.10002 18.4813 6.99551 18.7362 6.99644 19.0015C6.99738 19.2669 7.1037 19.521 7.292 19.708H7.294L7.296 19.71L7.3 19.714L7.31 19.724L7.34 19.752C7.47946 19.8789 7.62496 19.9991 7.776 20.112C8.068 20.332 8.494 20.614 9.054 20.894C9.814 21.274 10.816 21.646 12.06 21.848C11.8338 23.9659 12.23 26.1038 13.2 28H6C4.4087 28 2.88258 27.3679 1.75736 26.2426C0.632141 25.1174 0 23.5913 0 22V6ZM9 12C9.53043 12 10.0391 11.7893 10.4142 11.4142C10.7893 11.0391 11 10.5304 11 10C11 9.46957 10.7893 8.96086 10.4142 8.58579C10.0391 8.21071 9.53043 8 9 8C8.46957 8 7.96086 8.21071 7.58579 8.58579C7.21071 8.96086 7 9.46957 7 10C7 10.5304 7.21071 11.0391 7.58579 11.4142C7.96086 11.7893 8.46957 12 9 12ZM21 10C21 9.46957 20.7893 8.96086 20.4142 8.58579C20.0391 8.21071 19.5304 8 19 8C18.4696 8 17.9609 8.21071 17.5858 8.58579C17.2107 8.96086 17 9.46957 17 10C17 10.5304 17.2107 11.0391 17.5858 11.4142C17.9609 11.7893 18.4696 12 19 12C19.5304 12 20.0391 11.7893 20.4142 11.4142C20.7893 11.0391 21 10.5304 21 10V10ZM32 23C32 25.3869 31.0518 27.6761 29.364 29.364C27.6761 31.0518 25.3869 32 23 32C20.6131 32 18.3239 31.0518 16.636 29.364C14.9482 27.6761 14 25.3869 14 23C14 20.6131 14.9482 18.3239 16.636 16.636C18.3239 14.9482 20.6131 14 23 14C25.3869 14 27.6761 14.9482 29.364 16.636C31.0518 18.3239 32 20.6131 32 23V23ZM24 19C24 18.7348 23.8946 18.4804 23.7071 18.2929C23.5196 18.1054 23.2652 18 23 18C22.7348 18 22.4804 18.1054 22.2929 18.2929C22.1054 18.4804 22 18.7348 22 19V22H19C18.7348 22 18.4804 22.1054 18.2929 22.2929C18.1054 22.4804 18 22.7348 18 23C18 23.2652 18.1054 23.5196 18.2929 23.7071C18.4804 23.8946 18.7348 24 19 24H22V27C22 27.2652 22.1054 27.5196 22.2929 27.7071C22.4804 27.8946 22.7348 28 23 28C23.2652 28 23.5196 27.8946 23.7071 27.7071C23.8946 27.5196 24 27.2652 24 27V24H27C27.2652 24 27.5196 23.8946 27.7071 23.7071C27.8946 23.5196 28 23.2652 28 23C28 22.7348 27.8946 22.4804 27.7071 22.2929C27.5196 22.1054 27.2652 22 27 22H24V19Z" fill="#999999"/>
</svg>
